<?xml version="1.0" standalone="no"?>
<!DOCTYPE svg PUBLIC "-//W3C//DTD SVG 20010904//EN"
 "http://www.w3.org/TR/2001/REC-SVG-20010904/DTD/svg10.dtd">
<svg version="1.0" xmlns="http://www.w3.org/2000/svg"
 width="421.000000pt" height="421.000000pt" viewBox="0 0 421.000000 421.000000"
 preserveAspectRatio="xMidYMid meet">
<metadata>
Created by potrace 1.14, written by Peter Selinger 2001-2017
</metadata>
<g transform="translate(0.000000,421.000000) scale(0.100000,-0.100000)"
fill="#000000" stroke="none">
<path d="M1731 3750 c-58 -12 -197 -81 -257 -127 -43 -32 -58 -38 -123 -44
-98 -10 -197 -58 -278 -136 -54 -52 -133 -156 -133 -175 0 -4 -5 -19 -12 -35
-6 -15 -12 -30 -13 -33 -1 -3 -5 -14 -10 -24 -5 -11 -9 -37 -9 -58 0 -21 -3
-38 -7 -38 -7 0 -40 -100 -39 -115 0 -3 -6 -20 -13 -38 -47 -110 -49 -289 -7
-519 15 -78 17 -94 26 -188 4 -41 11 -86 16 -99 6 -18 5 -22 -5 -18 -20 8 -45
-16 -55 -54 -6 -24 -4 -57 9 -114 23 -107 81 -281 109 -328 25 -42 62 -62 87
-48 13 7 26 -11 67 -93 28 -56 58 -110 66 -120 51 -65 188 -188 251 -227 72
-44 221 -120 243 -123 6 -1 17 -5 23 -9 7 -5 21 -10 30 -12 10 -3 43 -11 73
-18 125 -31 214 -8 390 100 162 100 335 258 372 339 6 13 15 24 19 24 12 0 20
-18 11 -24 -22 -13 -1 -96 33 -130 14 -14 13 -16 -10 -22 -14 -3 -37 -22 -52
-40 -35 -46 -29 -114 14 -152 l28 -26 -28 -27 c-22 -21 -28 -36 -29 -72 -1
-53 7 -69 50 -100 32 -24 32 -24 13 -46 -27 -31 -22 -102 9 -136 13 -14 29
-25 37 -25 7 0 13 -5 13 -10 0 -6 3 -9 8 -8 4 1 21 -5 37 -12 17 -7 33 -14 38
-15 4 -2 8 -3 10 -5 2 -2 9 -4 92 -25 87 -22 124 -22 313 1 68 8 172 43 241
81 70 39 152 117 173 164 7 16 17 29 21 29 5 0 5 5 2 10 -3 6 -2 10 3 10 5 0
13 15 17 33 4 17 10 39 13 47 2 8 5 53 5 100 1 104 -26 173 -124 325 -36 55
-74 118 -84 140 -37 80 -30 167 20 268 13 26 22 47 20 47 -2 0 2 11 9 25 13
24 13 76 0 96 -9 15 -51 32 -109 43 -71 13 -165 -51 -212 -145 -33 -64 -40
-128 -29 -252 2 -21 -1 -40 -6 -43 -4 -3 -6 -8 -4 -12 19 -31 -110 -94 -141
-70 -7 6 -13 7 -13 4 0 -4 -8 -2 -17 3 -26 13 -76 21 -179 28 -74 4 -98 2
-128 -12 -20 -10 -36 -24 -36 -31 0 -8 -5 -14 -11 -14 -10 0 -3 40 10 50 14
11 69 128 64 134 -4 3 -1 6 5 6 7 0 11 3 10 8 -2 8 15 50 44 110 29 62 52 81
92 75 25 -3 40 1 58 19 22 21 36 44 35 58 0 3 5 14 11 26 15 29 26 131 26 244
0 139 -12 181 -60 219 -28 22 -47 19 -81 -12 -17 -15 -23 -17 -24 -6 -12 210
-59 498 -98 602 -5 12 -8 24 -7 27 2 10 -66 123 -125 207 -76 111 -76 137 1
180 43 24 47 42 17 74 -29 30 -106 93 -121 98 -6 2 -13 7 -16 11 -10 12 -97
49 -156 65 -32 8 -115 18 -184 22 -69 3 -126 6 -127 7 -1 0 4 23 10 49 8 37 8
50 -1 56 -17 10 -170 11 -221 1z"/>
</g>
</svg>
